<svg width="22" height="22" viewBox="0 0 22 22" fill="none" xmlns="http://www.w3.org/2000/svg">
<g id="share (1) 1">
<g id="g882">
<g id="g884">
<g id="Clip path group">
<mask id="mask0_147_2775" style="mask-type:luminance" maskUnits="userSpaceOnUse" x="0" y="0" width="22" height="22">
<g id="clipPath890">
<path id="path888" d="M0 1.90735e-06H22V22H0V1.90735e-06Z" fill="white"/>
</g>
</mask>
<g mask="url(#mask0_147_2775)">
<g id="g886">
<g id="g892">
<path id="path894" d="M12.7188 4.29688C12.7188 6.19536 14.2578 7.73438 16.1562 7.73438C18.0547 7.73438 19.5937 6.19536 19.5937 4.29688C19.5937 2.39839 18.0547 0.859376 16.1562 0.859376C14.2578 0.859376 12.7188 2.39839 12.7188 4.29688Z" stroke="white" stroke-width="1.3" stroke-miterlimit="10"/>
</g>
<g id="g896">
<path id="path898" d="M2.40625 11C2.40625 12.8985 3.94526 14.4375 5.84375 14.4375C7.74224 14.4375 9.28125 12.8985 9.28125 11C9.28125 9.10151 7.74224 7.5625 5.84375 7.5625C3.94526 7.5625 2.40625 9.10151 2.40625 11Z" stroke="white" stroke-width="1.3" stroke-miterlimit="10"/>
</g>
<g id="g900">
<path id="path902" d="M12.7188 17.7031C12.7188 19.6016 14.2578 21.1406 16.1562 21.1406C18.0547 21.1406 19.5937 19.6016 19.5937 17.7031C19.5937 15.8046 18.0547 14.2656 16.1562 14.2656C14.2578 14.2656 12.7188 15.8046 12.7188 17.7031Z" stroke="white" stroke-width="1.3" stroke-miterlimit="10"/>
</g>
<g id="g904">
<path id="path906" d="M13.2966 6.20457L8.70508 9.09375" stroke="white" stroke-width="1.3" stroke-miterlimit="10"/>
</g>
<g id="g908">
<path id="path910" d="M8.70508 12.9077L13.2966 15.7969" stroke="white" stroke-width="1.3" stroke-miterlimit="10"/>
</g>
</g>
</g>
</g>
</g>
</g>
</g>
</svg>
