<svg width="24" height="24" viewBox="0 0 24 24" fill="none" xmlns="http://www.w3.org/2000/svg">
<g id="fi_1713951" clip-path="url(#clip0_147_2345)">
<path id="Vector" d="M5.99921 7.1969C5.99005 6.57104 6.34656 5.99756 6.91162 5.72858C7.47668 5.45978 8.14667 5.5451 8.6264 5.94684C9.10614 6.34875 9.30756 6.99329 9.14203 7.5968H11.1992V5.53961C10.5483 5.71851 9.85504 5.46948 9.46649 4.91742C9.07812 4.36517 9.07812 3.62854 9.46649 3.07629C9.85504 2.52405 10.5483 2.27502 11.1992 2.4541V0.846436C9.80798 1.00464 8.50098 1.59424 7.46167 2.53247C6.02319 3.82318 5.20087 5.66412 5.19922 7.5968H6.05634C6.02045 7.46643 6.00122 7.33203 5.99921 7.1969Z" fill="#ED048D"/>
<path id="Vector_2" d="M10 3.99683C10 4.43866 10.3582 4.79681 10.8 4.79681C10.9965 4.797 11.186 4.72412 11.3317 4.59247C11.3469 4.58167 11.3632 4.57196 11.3801 4.56372C11.4039 4.54541 11.4299 4.53003 11.4573 4.51776C11.4848 4.50897 11.5132 4.50311 11.5421 4.50055C11.5612 4.49524 11.5804 4.49121 11.6 4.48883H11.61C11.6399 4.49158 11.6692 4.49744 11.6976 4.50641C11.7195 4.51007 11.741 4.51538 11.762 4.52252C11.7805 4.53278 11.7979 4.54449 11.8144 4.55768C11.8413 4.57306 11.8664 4.59155 11.8889 4.61279C11.8913 4.61536 11.8944 4.61609 11.8964 4.61847C11.9074 4.63403 11.9171 4.65033 11.9257 4.66736C11.9438 4.69098 11.959 4.7168 11.9713 4.74408C11.9803 4.77173 11.986 4.80029 11.9885 4.82922C11.9938 4.84882 11.9977 4.86877 12.0001 4.88892V7.59686H14.708C14.7272 7.59906 14.7461 7.60309 14.7644 7.6084C14.7939 7.61078 14.8228 7.61646 14.8508 7.62561C14.8779 7.63806 14.9036 7.65326 14.9272 7.6712C14.9442 7.67981 14.9605 7.68951 14.9761 7.7005C14.9788 7.7005 14.9797 7.70563 14.9821 7.70801C15.0035 7.73108 15.0224 7.75671 15.0381 7.784C15.0506 7.80011 15.062 7.81714 15.072 7.8349C15.0793 7.85632 15.0848 7.87848 15.0885 7.90082C15.0975 7.92902 15.1033 7.95795 15.1061 7.98724C15.1061 7.99054 15.1081 7.99329 15.1081 7.99695C15.1057 8.01636 15.1017 8.03558 15.096 8.05444C15.0938 8.08337 15.088 8.11212 15.0788 8.13959C15.0669 8.16705 15.0515 8.19287 15.0332 8.21649C15.0248 8.23334 15.0153 8.24963 15.0045 8.2652C14.8728 8.41095 14.7999 8.60046 14.8001 8.79694C14.8001 9.23877 15.1583 9.59692 15.6001 9.59692C16.0419 9.59692 16.4001 9.23877 16.4001 8.79694C16.4003 8.60046 16.3274 8.41095 16.1957 8.2652C16.1848 8.24982 16.1752 8.23352 16.1668 8.21649C16.1487 8.19269 16.1335 8.16705 16.1212 8.13959C16.1121 8.11212 16.1064 8.08337 16.104 8.05444C16.0985 8.03558 16.0945 8.01636 16.0921 7.99695C16.0921 7.99329 16.0941 7.99054 16.0941 7.98724C16.0967 7.95776 16.1025 7.92865 16.1117 7.90045C16.1152 7.87811 16.1207 7.85614 16.128 7.8349C16.1381 7.81696 16.1496 7.79974 16.1624 7.78363C16.1778 7.75635 16.1965 7.7309 16.2181 7.70801C16.2205 7.70563 16.2212 7.70251 16.2241 7.7005C16.282 7.6463 16.3567 7.61389 16.4356 7.6084C16.4541 7.60309 16.473 7.59906 16.492 7.59686H18.8C18.8 7.32825 18.7847 7.05981 18.7541 6.79285C18.3763 3.66248 15.9006 1.19989 12.768 0.838806C12.5129 0.811157 12.2566 0.797241 12.0001 0.796875V3.10492C11.9977 3.12433 11.9938 3.14355 11.9885 3.16241C11.986 3.19135 11.9803 3.22009 11.9713 3.24774C11.959 3.27502 11.9438 3.30066 11.9257 3.32446C11.9171 3.34149 11.9074 3.35779 11.8964 3.37335C11.8964 3.37573 11.8913 3.37646 11.8889 3.37885C11.866 3.40027 11.8408 3.41895 11.8137 3.43451C11.7974 3.44733 11.7802 3.45886 11.762 3.4693C11.7408 3.47626 11.719 3.48157 11.6968 3.48523C11.6686 3.49438 11.6395 3.50043 11.61 3.50281C11.6064 3.50281 11.6036 3.50281 11.6 3.50281C11.5806 3.50043 11.5613 3.49658 11.5425 3.49127C11.5135 3.48853 11.485 3.48285 11.4573 3.47406C11.4301 3.46179 11.4042 3.44641 11.3804 3.42847C11.3636 3.41986 11.3473 3.41016 11.3317 3.39935C11.1856 3.26825 10.9963 3.19611 10.8 3.19684C10.3582 3.19684 10 3.55499 10 3.99683Z" fill="#ED048D"/>
<path id="Vector_3" d="M15.6 17.9968H8.3999C8.17908 17.9968 8 18.1759 8 18.3967C8 18.6177 8.17908 18.7968 8.3999 18.7968H15.6C15.8208 18.7968 15.9999 18.6177 15.9999 18.3967C15.9999 18.1759 15.8208 17.9968 15.6 17.9968Z" fill="#ED048D"/>
<path id="Vector_4" d="M11.9996 23.1968C13.1702 23.1954 14.1696 22.3509 14.3665 21.1968H9.63281C9.82965 22.3509 10.829 23.1954 11.9996 23.1968Z" fill="#ED048D"/>
<path id="Vector_5" d="M12 8.39697V10.9462C12.5997 10.79 13.2356 10.9947 13.6315 11.4715C14.0273 11.9483 14.1118 12.611 13.8479 13.1718C13.584 13.7325 13.0197 14.0901 12.4001 14.089C12.2648 14.0872 12.1304 14.0679 12 14.0319V17.197H14.8V16.8867C14.7991 15.2444 15.4731 13.6741 16.6641 12.5434C17.8299 11.4525 18.5706 9.98303 18.754 8.39697H17.1429C17.3218 9.04791 17.0728 9.74133 16.5205 10.1297C15.9683 10.5181 15.2316 10.5181 14.6796 10.1297C14.1273 9.74133 13.8783 9.04791 14.0572 8.39697H12Z" fill="#ED048D"/>
<path id="Vector_6" d="M15.6 20.3969C15.8208 20.3969 15.9999 20.2178 15.9999 19.997C15.9999 19.776 15.8208 19.5969 15.6 19.5969H8.3999C8.17908 19.5969 8 19.776 8 19.997C8 20.2178 8.17908 20.3969 8.3999 20.3969H15.6Z" fill="#ED048D"/>
<path id="Vector_7" d="M7.08838 8.09283C7.0849 8.11517 7.07941 8.13733 7.07208 8.15875C7.06201 8.17651 7.05048 8.19354 7.03802 8.20966C7.02228 8.23694 7.0036 8.26257 6.98199 8.28564C6.97961 8.28802 6.97888 8.29114 6.97595 8.29315C6.96057 8.30414 6.94446 8.31384 6.92761 8.32245C6.90381 8.34039 6.87799 8.35577 6.85089 8.36804C6.82306 8.37665 6.79449 8.38251 6.76556 8.38525C6.7467 8.39056 6.72748 8.39441 6.70807 8.39679H5.25C5.43091 9.9834 6.17084 11.4537 7.33722 12.5445C8.52777 13.6746 9.20142 15.2448 9.19995 16.8865V17.1968H11.2V13.3807C11.2024 13.3622 11.2061 13.3438 11.2112 13.3256C11.2136 13.2958 11.2196 13.2661 11.2288 13.2375C11.2407 13.2112 11.2557 13.1863 11.2733 13.1632C11.2819 13.1453 11.2919 13.1281 11.3036 13.1119C11.306 13.1096 11.3091 13.1088 11.3115 13.1061C11.3331 13.0861 11.3569 13.0687 11.3824 13.0541C11.4 13.0396 11.4188 13.0268 11.4388 13.016C11.4582 13.0096 11.478 13.0046 11.4979 13.0012C11.5281 12.9915 11.5593 12.9852 11.5908 12.9828C11.5939 12.9819 11.597 12.9812 11.5999 12.9808C11.619 12.983 11.6376 12.9869 11.6559 12.992C11.6856 12.9948 11.7149 13.0006 11.7433 13.0096C11.7697 13.0217 11.7947 13.0367 11.818 13.0541C11.8358 13.0629 11.8526 13.0729 11.8687 13.0845C12.0143 13.2163 12.2036 13.2892 12.4001 13.2888C12.8419 13.2888 13.2001 12.9307 13.2001 12.4888C13.2001 12.047 12.8419 11.6888 12.4001 11.6888C12.2036 11.6887 12.0141 11.7615 11.8683 11.8932C11.8528 11.904 11.8365 11.9139 11.8196 11.9225C11.796 11.9406 11.7704 11.9558 11.7433 11.9681C11.6955 11.9776 11.6477 11.9871 11.5999 11.9968C11.5964 11.9968 11.5937 11.9968 11.5904 11.9968C11.5611 11.9943 11.5322 11.9884 11.504 11.9796C11.4816 11.976 11.4595 11.9705 11.438 11.9631C11.4205 11.9531 11.4036 11.9417 11.3875 11.9293C11.36 11.9135 11.3342 11.8947 11.3112 11.8729C11.3088 11.8705 11.3057 11.8696 11.3036 11.8672C11.2927 11.8516 11.283 11.8353 11.2744 11.8185C11.2357 11.7731 11.2136 11.7159 11.2115 11.6564C11.2062 11.6368 11.2024 11.6169 11.2 11.5967V8.39679H8.49207C8.44116 8.39642 8.39099 8.38617 8.34393 8.36676C8.32361 8.35687 8.3042 8.34497 8.28607 8.33124C8.2641 8.3208 8.24323 8.30798 8.224 8.29315C8.22125 8.29315 8.22034 8.28802 8.21796 8.28564C8.19653 8.26276 8.17786 8.2373 8.16248 8.21002C8.14966 8.19391 8.13812 8.1767 8.12805 8.15875C8.12073 8.13751 8.11523 8.11554 8.11157 8.0932C8.1026 8.065 8.09674 8.03589 8.09399 8.00641C8.09399 8.0033 8.09399 8.00037 8.09399 7.99689C8.09637 7.97729 8.1004 7.95807 8.10608 7.93921C8.10828 7.91028 8.11414 7.88153 8.12329 7.85406C8.13538 7.82678 8.15057 7.80096 8.16888 7.77716C8.17712 7.76013 8.18665 7.74384 8.19763 7.72845C8.32855 7.58234 8.4007 7.39301 8.39996 7.1969C8.39996 6.75507 8.04181 6.39673 7.59998 6.39673C7.15814 6.39673 6.79999 6.75507 6.79999 7.1969C6.7998 7.39319 6.87268 7.5827 7.00433 7.72845C7.01514 7.74402 7.02484 7.76031 7.03326 7.77716C7.05139 7.80096 7.06677 7.8266 7.07886 7.85406C7.08801 7.88153 7.09369 7.91028 7.09607 7.93921C7.10156 7.95807 7.10559 7.97729 7.10797 7.99689V8.00641C7.10468 8.03589 7.09808 8.06482 7.08838 8.09283Z" fill="#ED048D"/>
<path id="Vector_8" d="M23.6003 7.19702H20.8005C20.5795 7.19702 20.4004 7.3761 20.4004 7.59692C20.4004 7.81793 20.5795 7.99701 20.8005 7.99701H23.6003C23.8214 7.99701 24.0004 7.81793 24.0004 7.59692C24.0004 7.3761 23.8214 7.19702 23.6003 7.19702Z" fill="#ED048D"/>
<path id="Vector_9" d="M19.6207 3.59697C19.691 3.59716 19.7601 3.57866 19.8207 3.54332L22.2452 2.1433C22.4349 2.03215 22.4991 1.78862 22.3893 1.59819C22.2792 1.40776 22.0362 1.34185 21.8451 1.45061L19.4208 2.85045C19.264 2.94109 19.1875 3.12566 19.2344 3.30052C19.2812 3.47539 19.4396 3.59697 19.6207 3.59697Z" fill="#ED048D"/>
<path id="Vector_10" d="M19.4211 12.3432L21.8454 13.7432C22.0366 13.8518 22.2795 13.7859 22.3896 13.5955C22.4995 13.405 22.4352 13.1615 22.2455 13.0504L19.821 11.6503C19.6972 11.5778 19.5439 11.5771 19.4194 11.6485C19.2951 11.7201 19.2184 11.8529 19.2188 11.9962C19.2191 12.1398 19.2962 12.2722 19.4211 12.3432Z" fill="#ED048D"/>
<path id="Vector_11" d="M0.400085 7.99701H3.19995C3.42096 7.99701 3.60004 7.81793 3.60004 7.59692C3.60004 7.3761 3.42096 7.19702 3.19995 7.19702H0.400085C0.179077 7.19702 0 7.3761 0 7.59692C0 7.81793 0.179077 7.99701 0.400085 7.99701Z" fill="#ED048D"/>
<path id="Vector_12" d="M1.75488 2.14322L4.17938 3.54325C4.30316 3.61576 4.45642 3.61649 4.58093 3.54508C4.70526 3.47348 4.78198 3.34092 4.78162 3.19736C4.78125 3.05381 4.70416 2.92142 4.57929 2.85038L2.15497 1.45054C2.03119 1.37784 1.87793 1.37711 1.75342 1.4487C1.62891 1.52012 1.55237 1.65287 1.55274 1.79642C1.55292 1.93998 1.63019 2.07236 1.75488 2.14322Z" fill="#ED048D"/>
<path id="Vector_13" d="M1.95472 13.7968C2.02485 13.797 2.09388 13.7785 2.15467 13.7433L4.57917 12.3433C4.76869 12.232 4.83314 11.9886 4.72328 11.7982C4.61323 11.6078 4.37025 11.5419 4.17909 11.6504L1.75477 13.0505C1.59785 13.1409 1.52149 13.3255 1.56837 13.5003C1.61524 13.6752 1.77363 13.7968 1.95472 13.7968Z" fill="#ED048D"/>
</g>
<defs>
<clipPath id="clip0_147_2345">
<rect width="24" height="24" fill="white"/>
</clipPath>
</defs>
</svg>
