<svg width="22" height="22" viewBox="0 0 22 22" fill="none" xmlns="http://www.w3.org/2000/svg">
<g id="Chat SVG" clip-path="url(#clip0_527_3252)">
<g id="design">
<path id="Vector" d="M13.698 18.3334H1.71875C1.32583 18.3334 1 18.0076 1 17.6146V9.46878C1 5.90376 3.90376 3 7.46878 3H13.698C17.263 3 20.1667 5.90376 20.1667 9.46878V11.8646C20.1667 15.4296 17.263 18.3334 13.698 18.3334ZM2.43751 16.8959H13.698C16.4676 16.8959 18.7292 14.6342 18.7292 11.8646V9.46878C18.7292 6.6896 16.4676 4.43751 13.698 4.43751H7.46878C4.69918 4.43751 2.43751 6.6896 2.43751 9.46878V16.8959Z" fill="white"/>
<path id="Vector_2" d="M6.74935 11.6234C6.50019 11.6234 6.25102 11.518 6.06893 11.3455C5.89643 11.1634 5.79102 10.9143 5.79102 10.6651C5.79102 10.4064 5.89643 10.1668 6.06893 9.98469C6.42352 9.6301 7.07519 9.6301 7.42977 9.98469C7.46811 10.0326 7.50644 10.0805 7.54477 10.1284C7.58311 10.1859 7.61186 10.2434 7.63102 10.3009C7.65977 10.3584 7.67894 10.4159 7.68852 10.4734C7.69811 10.5405 7.70769 10.6076 7.70769 10.6651C7.70769 10.7226 7.69811 10.7897 7.68852 10.8568C7.67894 10.9143 7.65977 10.9718 7.63102 11.0293C7.61186 11.0868 7.58311 11.1443 7.54477 11.1922C7.50644 11.2497 7.46811 11.2976 7.42977 11.3455C7.24769 11.518 6.99852 11.6234 6.74935 11.6234Z" fill="white"/>
<path id="Vector_3" d="M10.5833 11.6276C10.4588 11.6276 10.3342 11.5989 10.2192 11.5509C10.0946 11.503 9.99875 11.4359 9.90292 11.3497C9.73042 11.1676 9.625 10.9184 9.625 10.6693C9.625 10.5447 9.65375 10.4201 9.70167 10.3051C9.74958 10.1805 9.81667 10.0847 9.90292 9.98885C9.99875 9.9026 10.0946 9.83552 10.2192 9.7876C10.3917 9.71094 10.5833 9.69177 10.7654 9.7301C10.8325 9.73969 10.89 9.75885 10.9475 9.7876C11.005 9.80677 11.0625 9.83552 11.1104 9.87385C11.1679 9.9026 11.2158 9.95052 11.2638 9.98885C11.35 10.0847 11.4171 10.1805 11.465 10.3051C11.5129 10.4201 11.5417 10.5447 11.5417 10.6693C11.5417 10.9184 11.4363 11.1676 11.2638 11.3497C11.2158 11.388 11.1679 11.4359 11.1104 11.4647C11.0625 11.503 11.005 11.5318 10.9475 11.5509C10.89 11.5797 10.8325 11.5989 10.7654 11.6084C10.7079 11.618 10.6408 11.6276 10.5833 11.6276Z" fill="white"/>
<path id="Vector_4" d="M14.4173 11.6248C14.3598 11.6248 14.2927 11.6152 14.2352 11.6056C14.1682 11.5961 14.1107 11.5769 14.0532 11.5481C13.9957 11.529 13.9382 11.5002 13.8807 11.4619C13.8327 11.4236 13.7848 11.3852 13.7369 11.3469C13.5644 11.1648 13.459 10.9252 13.459 10.6665C13.459 10.5419 13.4877 10.4173 13.5357 10.3023C13.5836 10.1873 13.6507 10.0819 13.7369 9.98605C13.7848 9.94772 13.8327 9.90939 13.8807 9.87105C13.9382 9.83272 13.9957 9.80397 14.0532 9.7848C14.1107 9.75605 14.1682 9.73689 14.2352 9.7273C14.5419 9.6698 14.8677 9.76564 15.0977 9.98605C15.2702 10.1681 15.3757 10.4173 15.3757 10.6665C15.3757 10.724 15.3661 10.7911 15.3565 10.8581C15.3469 10.9156 15.3277 10.9731 15.299 11.0306C15.2798 11.0881 15.2511 11.1456 15.2127 11.2031C15.1744 11.2511 15.1361 11.299 15.0977 11.3469C14.9157 11.5194 14.6665 11.6248 14.4173 11.6248Z" fill="white"/>
</g>
</g>
<defs>
<clipPath id="clip0_527_3252">
<rect width="22" height="22" fill="white"/>
</clipPath>
</defs>
</svg>
