<svg width="8" height="8" viewBox="0 0 8 8" fill="none" xmlns="http://www.w3.org/2000/svg">
<path d="M6.96778 0.247976C7.10355 0.247976 7.23933 0.297999 7.34652 0.405192C7.55376 0.612431 7.55376 0.955447 7.34652 1.16269L1.48666 7.02255C1.27942 7.22979 0.936406 7.22979 0.729167 7.02255C0.521928 6.81531 0.521928 6.47229 0.729167 6.26505L6.58903 0.405192C6.69622 0.297999 6.832 0.247976 6.96778 0.247976Z" fill="#E7502C"/>
<path d="M0.535873 3.22794C0.828866 3.22794 1.07184 3.47091 1.07184 3.7639L1.07184 6.67954L3.98747 6.67954C4.28047 6.67954 4.52344 6.92251 4.52344 7.2155C4.52344 7.50849 4.28047 7.75146 3.98747 7.75146L0.535872 7.75146C0.242879 7.75146 -9.05778e-05 7.50849 -9.05522e-05 7.2155L-9.02505e-05 3.7639C-9.02248e-05 3.47091 0.242879 3.22794 0.535873 3.22794Z" fill="#E7502C"/>
</svg>
