<svg width="24" height="24" viewBox="0 0 24 24" fill="none" xmlns="http://www.w3.org/2000/svg">
<g id="fi_153739" clip-path="url(#clip0_147_2382)">
<path id="XMLID_23_" d="M12 0C5.3832 0 0 5.3832 0 12C0 18.6168 5.3832 24 12 24C18.6169 24 24 18.6168 24 12C24 5.3832 18.6169 0 12 0ZM5.89091 9.67273C5.89091 9.29018 6.04655 8.91491 6.31702 8.64429C6.58764 8.37382 6.96218 8.21818 7.34545 8.21818C7.728 8.21818 8.10327 8.37382 8.37382 8.64429C8.64502 8.91491 8.8 9.29018 8.8 9.67273C8.8 10.0553 8.64502 10.4305 8.37382 10.7011C8.10327 10.9716 7.728 11.1273 7.34545 11.1273C6.96291 11.1273 6.58764 10.9716 6.31702 10.7011C6.04655 10.4305 5.89091 10.0553 5.89091 9.67273ZM16.474 16.474C16.0481 16.9 15.3573 16.9 14.9313 16.474C14.1482 15.6911 13.1073 15.2599 12 15.2599C10.8926 15.2599 9.85171 15.6911 9.06865 16.474C8.85564 16.6871 8.57644 16.7936 8.29731 16.7936C8.01818 16.7936 7.73891 16.6871 7.52589 16.474C7.09985 16.0481 7.09985 15.3573 7.52582 14.9313C8.72087 13.7362 10.3099 13.078 11.9999 13.078C11.9999 13.078 11.9999 13.078 12 13.078C13.69 13.078 15.279 13.7362 16.474 14.9313C16.9 15.3572 16.9 16.048 16.474 16.474ZM17.6829 10.7011C17.4124 10.9716 17.0371 11.1273 16.6545 11.1273C16.272 11.1273 15.8967 10.9716 15.6261 10.7011C15.3549 10.4305 15.2 10.0553 15.2 9.67273C15.2 9.29018 15.3549 8.91491 15.6261 8.64429C15.8967 8.37382 16.2713 8.21818 16.6545 8.21818C17.0371 8.21818 17.4124 8.37382 17.6829 8.64429C17.9542 8.91491 18.1091 9.29018 18.1091 9.67273C18.1091 10.0553 17.9541 10.4305 17.6829 10.7011Z" fill="#ED048D"/>
</g>
<defs>
<clipPath id="clip0_147_2382">
<rect width="24" height="24" fill="white"/>
</clipPath>
</defs>
</svg>
