<svg width="24" height="24" viewBox="0 0 24 24" fill="none" xmlns="http://www.w3.org/2000/svg">
<g id="fi_10044790">
<path id="Vector" d="M22.4105 18.4305L13.193 3.468C12.6917 2.58909 11.3088 2.58913 10.8043 3.46805C10.8043 3.468 1.58677 18.4305 1.58677 18.4305C0.855302 19.5252 1.67296 21.2312 3.02305 21.1905C3.023 21.1905 20.9742 21.1905 20.9742 21.1905C22.3219 21.2294 23.1494 19.5292 22.4105 18.4305ZM10.7818 18.003C11.0956 16.5453 13.2188 16.7586 13.2417 18.2506C13.1534 20.07 10.5031 19.7945 10.7818 18.003ZM13.2418 14.5155C13.1993 16.1274 10.8012 16.1301 10.7555 14.5155V8.80052C10.8029 7.18887 13.196 7.18681 13.2417 8.80054C13.2417 8.80051 13.2418 14.5155 13.2418 14.5155Z" fill="#ED048D"/>
</g>
</svg>
