<svg width="121" height="17" viewBox="0 0 121 17" fill="none" xmlns="http://www.w3.org/2000/svg">
<path d="M0.992 17V0.199999H4.208L11.36 12.056H9.656L16.688 0.199999H19.88L19.928 17H16.28L16.256 5.792H16.928L11.312 15.224H9.56L3.824 5.792H4.64V17H0.992ZM27.4899 6.968H35.5779V9.992H27.4899V6.968ZM27.7779 13.88H36.9219V17H23.9139V0.199999H36.6099V3.32H27.7779V13.88ZM43.5914 6.968H51.6794V9.992H43.5914V6.968ZM43.8794 13.88H53.0234V17H40.0154V0.199999H52.7114V3.32H43.8794V13.88Z" fill="#ED048D"/>
<path d="M55.373 11.744V8.744H62.165V11.744H55.373ZM86.9748 15.968V17H81.8148V3.896L75.9588 15.536H74.3748L68.5428 3.896V17H63.3828V15.968H65.7108V0.223999H70.1268L75.1908 10.76L80.2548 0.223999H84.6468V15.968H86.9748ZM102.128 15.968V17H86.9844V15.968H89.3124V0.223999H92.1444V14.312H99.8004V15.968H102.128ZM120.714 15.968V17H115.362L113.682 13.184H105.282L103.602 17H98.2501V15.968H101.034L107.97 0.223999H110.994L117.93 15.968H120.714ZM112.53 10.568L109.482 3.656L106.434 10.568H112.53Z" fill="black"/>
</svg>
