<svg width="24" height="24" viewBox="0 0 24 24" fill="none" xmlns="http://www.w3.org/2000/svg">
<g id="fi_6216415" clip-path="url(#clip0_147_2370)">
<path id="Vector" d="M14.8235 19.4118C14.8235 17.8526 16.0875 16.5883 17.646 16.5883H21.1775C22.7357 16.5883 24 17.8541 24 19.4118C24 20.9709 22.736 22.2353 21.1775 22.2353H17.646C16.0878 22.2353 14.8235 20.9694 14.8235 19.4118ZM16.2353 19.4118C16.2353 20.1901 16.8679 20.8235 17.646 20.8235H21.1775C21.9562 20.8235 22.5882 20.1913 22.5882 19.4118C22.5882 18.6334 21.9556 18 21.1775 18H17.646C16.8673 18 16.2353 18.6322 16.2353 19.4118ZM21.4122 15.1829C21.3345 15.1786 21.2563 15.1765 21.1775 15.1765H17.646C15.3077 15.1765 13.4118 17.0731 13.4118 19.4118C13.4118 20.5395 13.8532 21.5648 14.5726 22.3241C13.4363 22.7238 12.2141 22.9412 10.9412 22.9412C4.89853 22.9412 0 18.0427 0 12C0 5.95737 4.89853 1.05884 10.9412 1.05884C16.9838 1.05884 21.8824 5.95737 21.8824 12C21.8824 13.1071 21.7179 14.1757 21.4122 15.1829ZM14.8235 11.6471H11.2941V6.00001C11.2941 5.61017 10.9781 5.29413 10.5882 5.29413C10.1984 5.29413 9.88235 5.61017 9.88235 6.00001V12.353C9.88235 12.7428 10.1984 13.0588 10.5882 13.0588H14.8235C15.2134 13.0588 15.5294 12.7428 15.5294 12.353C15.5294 11.9631 15.2134 11.6471 14.8235 11.6471ZM17.6471 20.1177C17.2572 20.1177 16.9412 19.8016 16.9412 19.4118C16.9412 19.0219 17.2572 18.7059 17.6471 18.7059H19.4118C19.8016 18.7059 20.1176 19.0219 20.1176 19.4118C20.1176 19.8016 19.8016 20.1177 19.4118 20.1177H17.6471Z" fill="#ED048D"/>
</g>
<defs>
<clipPath id="clip0_147_2370">
<rect width="24" height="24" fill="white"/>
</clipPath>
</defs>
</svg>
