<svg width="22" height="22" viewBox="0 0 22 22" fill="none" xmlns="http://www.w3.org/2000/svg">
<g id="fi_1388997" clip-path="url(#clip0_527_3262)">
<path id="Vector" d="M7.64845 4.29689C7.64845 3.82222 8.03315 3.43752 8.50782 3.43752H15.7266C17.622 3.43752 19.1641 4.97969 19.1641 6.87501V13.8789C19.1641 14.3536 18.7794 14.7383 18.3047 14.7383C17.83 14.7383 17.4453 14.3536 17.4453 13.8789V6.87501C17.4453 5.92735 16.6742 5.15627 15.7266 5.15627H8.50782C8.03315 5.15627 7.64845 4.77156 7.64845 4.29689ZM21.7442 14.728C21.4063 14.3949 20.8622 14.3986 20.5288 14.7364L18.6169 16.6747C18.536 16.756 18.4291 16.8008 18.3156 16.8008C18.3154 16.8008 18.3154 16.8008 18.3153 16.8008C18.202 16.8008 18.095 16.7561 18.0141 16.6751L16.0772 14.7331C15.742 14.3969 15.1978 14.3962 14.8618 14.7314C14.5258 15.0666 14.5251 15.6108 14.8603 15.9468L16.7973 17.8889C17.2029 18.2956 17.7421 18.5195 18.3153 18.5195H18.3168C18.8905 18.5192 19.4299 18.2944 19.838 17.8842L21.7524 15.9434C22.0858 15.6055 22.0821 15.0614 21.7442 14.728ZM13.4063 16.8438H6.27345C5.32579 16.8438 4.5547 16.0728 4.5547 15.125V7.90626C4.5547 7.43159 4.17 7.04689 3.69533 7.04689C3.22066 7.04689 2.83595 7.43159 2.83595 7.90626V15.125C2.83595 17.0205 4.37796 18.5625 6.27345 18.5625H13.4063C13.8809 18.5625 14.2656 18.1778 14.2656 17.7031C14.2656 17.2285 13.8809 16.8438 13.4063 16.8438ZM3.68442 5.15627H3.68475C3.79805 5.15627 3.90497 5.20091 3.98587 5.28198L5.92282 7.22413C6.09066 7.39248 6.31105 7.47657 6.53126 7.47657C6.7508 7.47657 6.97035 7.39299 7.13819 7.22564C7.47422 6.89062 7.47489 6.34646 7.1397 6.01044L5.20276 4.06829C4.79674 3.66126 4.25761 3.43517 3.68324 3.43752C3.10954 3.43802 2.57008 3.6626 2.16205 4.07282L0.247594 6.01379C-0.0857491 6.35167 -0.0820565 6.89566 0.255986 7.229C0.593693 7.56234 1.13785 7.55865 1.47119 7.22078L3.3833 5.28249C3.46404 5.20125 3.57095 5.15643 3.68442 5.15627Z" fill="white"/>
</g>
<defs>
<clipPath id="clip0_527_3262">
<rect width="22" height="22" fill="white"/>
</clipPath>
</defs>
</svg>
