<svg width="25" height="24" viewBox="0 0 25 24" fill="none" xmlns="http://www.w3.org/2000/svg">
<g id="Frame 9" clip-path="url(#clip0_147_2269)">
<path id="Union" fill-rule="evenodd" clip-rule="evenodd" d="M15.4585 7.40969C17.7471 9.80618 17.6596 13.6042 15.2631 15.8927C12.8666 18.1813 9.06865 18.0938 6.78008 15.6973C4.49152 13.3008 4.579 9.50285 6.97549 7.21429C9.37197 4.92572 13.17 5.01321 15.4585 7.40969ZM17.3248 16.6037C19.839 13.5224 19.7225 8.97881 16.9049 6.02842C13.8535 2.83311 8.78953 2.71646 5.59422 5.76788C2.39891 8.8193 2.28226 13.8833 5.33368 17.0786C8.15121 20.029 12.6846 20.3546 15.8784 17.985L17.9931 20.1994C18.3745 20.5988 19.0075 20.6134 19.4069 20.2319C19.8063 19.8505 19.8209 19.2175 19.4395 18.8181L17.3248 16.6037Z" fill="#B2B2B2"/>
</g>
<defs>
<clipPath id="clip0_147_2269">
<rect width="24" height="24" fill="white" transform="translate(0.5)"/>
</clipPath>
</defs>
</svg>
